<?xml version="1.0" standalone="no"?>
<!DOCTYPE svg PUBLIC "-//W3C//DTD SVG 20010904//EN"
 "http://www.w3.org/TR/2001/REC-SVG-20010904/DTD/svg10.dtd">
<svg version="1.0" xmlns="http://www.w3.org/2000/svg"
 width="512.000000pt" height="512.000000pt" viewBox="0 0 512.000000 512.000000"
 preserveAspectRatio="xMidYMid meet">

<g transform="translate(0.000000,512.000000) scale(0.100000,-0.100000)"
fill="#FFD700" stroke="none">
<path d="M3510 5106 c-100 -28 -214 -113 -256 -191 -15 -28 -24 -35 -39 -31
-363 98 -793 113 -1155 40 -473 -95 -924 -337 -1265 -679 -389 -390 -626 -876
-707 -1450 -17 -119 -16 -493 1 -615 80 -572 321 -1061 718 -1456 108 -107
112 -112 94 -128 -67 -61 -87 -226 -40 -327 66 -139 214 -212 357 -175 94 24
173 83 204 152 10 21 11 21 118 -27 532 -238 1147 -283 1700 -124 233 67 443
160 638 282 l102 64 63 -25 c118 -46 215 -56 332 -31 96 20 184 66 257 133
l61 57 106 1 c119 0 164 14 200 59 29 38 36 70 22 114 -16 54 -60 112 -133
172 -61 51 -63 54 -83 133 -11 45 -34 108 -51 141 l-31 60 48 97 c196 391 279
768 266 1208 -15 541 -192 1031 -526 1460 -95 122 -273 303 -399 404 l-109 87
20 57 c29 88 21 216 -19 302 -17 36 -49 85 -71 110 -102 113 -279 166 -423
126z m237 -138 c226 -106 229 -435 5 -545 -76 -37 -181 -39 -259 -4 -103 46
-175 154 -176 265 -1 79 16 135 56 188 90 118 244 157 374 96z m-842 -132 c55
-9 143 -26 195 -39 l95 -23 -3 -46 c-12 -171 92 -345 251 -419 67 -32 79 -34
172 -34 120 1 188 23 271 91 64 53 56 55 182 -50 443 -370 726 -859 829 -1436
23 -129 26 -172 27 -385 0 -204 -3 -260 -22 -370 -42 -245 -104 -443 -208
-663 l-53 -113 -65 45 c-95 65 -163 88 -281 94 -58 2 -124 0 -156 -7 -63 -13
-164 -59 -213 -96 -56 -43 -60 -28 -8 37 251 318 388 738 369 1138 -22 447
-193 836 -507 1150 -415 416 -993 590 -1570 474 -41 -9 -128 -33 -193 -54
-521 -173 -924 -576 -1096 -1097 -22 -65 -47 -158 -56 -208 -9 -49 -18 -100
-21 -111 -3 -17 -13 -23 -52 -28 -112 -15 -262 -117 -332 -225 -54 -86 -73
-154 -73 -271 -1 -113 17 -179 72 -266 106 -169 309 -265 499 -235 40 6 68 7
70 1 9 -27 110 -184 158 -247 209 -272 501 -482 819 -589 511 -171 1052 -102
1502 191 l85 56 52 -48 51 -48 6 -100 c8 -128 40 -216 115 -315 42 -56 52 -75
42 -82 -261 -177 -619 -312 -963 -364 -166 -25 -504 -26 -665 -1 -240 38 -443
97 -650 191 l-115 52 -7 58 c-20 155 -153 270 -313 269 -38 0 -83 -6 -100 -12
-29 -12 -30 -11 -165 126 -201 204 -336 392 -450 628 -107 222 -178 451 -216
695 -25 162 -26 520 -1 680 130 828 659 1513 1420 1840 204 87 463 155 682
179 125 13 468 6 590 -13z m-65 -761 c216 -38 467 -143 650 -273 120 -85 296
-260 378 -377 424 -601 396 -1392 -69 -1957 -65 -80 -85 -98 -107 -98 -39 -1
-105 -33 -130 -65 -13 -16 -22 -42 -22 -61 0 -31 -7 -37 -92 -93 -481 -317
-1091 -356 -1600 -101 -293 147 -532 373 -694 658 l-19 33 30 21 c121 85 206
222 227 363 34 239 -117 474 -352 548 -67 21 -70 23 -70 53 0 50 54 252 95
355 83 209 195 380 360 544 131 131 260 225 410 299 179 89 355 142 545 166
103 12 346 4 460 -15z m-1812 -1527 c103 -38 192 -132 228 -240 25 -75 16
-205 -18 -280 -34 -74 -112 -152 -186 -186 -114 -52 -273 -40 -376 30 l-36 25
57 75 58 75 72 5 c138 9 223 81 231 197 7 100 -30 170 -112 214 -34 18 -62 22
-164 25 -137 5 -144 12 -49 52 95 41 197 44 295 8z m3312 -1188 c151 -29 280
-140 331 -288 35 -100 23 -272 -24 -336 -14 -19 -16 -19 -103 3 -195 51 -448
158 -619 261 -96 58 -95 54 -47 143 52 98 160 181 273 211 65 18 119 19 189 6z
m-577 -165 c-15 -30 -30 -55 -34 -55 -3 0 -14 9 -24 20 -18 20 -17 21 21 55
57 50 68 44 37 -20z m207 -368 c131 -71 399 -176 529 -207 l54 -13 -24 -19
c-13 -11 -53 -34 -89 -51 -62 -30 -71 -32 -180 -32 -108 0 -119 2 -182 32
-139 66 -225 182 -252 341 l-6 34 43 -25 c23 -13 71 -40 107 -60z m926 -89
c17 -33 12 -36 -67 -45 -56 -6 -62 -4 -56 11 4 9 14 42 23 72 l16 56 35 -34
c19 -18 41 -45 49 -60z"/>
<path d="M2415 3599 c-305 -38 -609 -226 -779 -483 -337 -506 -222 -1163 267
-1529 363 -271 888 -284 1269 -31 90 60 223 186 287 273 326 441 282 1052
-103 1443 -247 252 -590 371 -941 327z m386 -143 c360 -91 630 -362 726 -725
22 -82 26 -118 26 -241 0 -124 -4 -159 -26 -242 -47 -179 -130 -325 -258 -455
-259 -262 -626 -360 -980 -262 -251 70 -482 256 -609 491 -83 155 -127 357
-115 527 33 479 381 855 861 931 95 15 266 4 375 -24z"/>
<path d="M2426 3034 c-88 -21 -193 -81 -261 -149 -216 -216 -218 -568 -4 -785
270 -275 733 -202 897 142 46 94 62 162 62 251 -1 356 -346 625 -694 541z"/>
</g>
</svg>
